<svg pathMatch="full" version="1.0" xmlns="http://www.w3.org/2000/svg" viewBox="0 0 480.000000 480.000000" preserveAspectRatio="xMidYMid meet"> <g transform="translate(0.000000,480.000000) scale(0.100000,-0.100000)" fill="#274c77" stroke="none"> <path d="M670 2400 l0 -2190 1731 0 1731 0 -70 77 c-39 43 -287 294 -551 558 l-481 480 0 1195 0 1195 415 415 c301 301 415 421 415 437 l0 23 -1595 0 -1595 0 0 -2190z m1912 1599 c2 -6 -286 -301 -641 -656 -554 -553 -648 -644 -670 -641 l-26 3 -3 640 c-1 352 0 646 3 653 6 16 1331 18 1337 1z m-124 -831 c9 -9 12 -162 12 -628 0 -637 0 -640 -40 -640 -19 0 -640 620 -640 640 0 20 621 640 640 640 9 0 21 -5 28 -12z m-420 -1608 l780 -780 -789 0 -789 0 0 773 c0 667 2 787 15 787 2 0 354 -351 783 -780z"/> </g> </svg>